<svg xmlns="http://www.w3.org/2000/svg" viewBox="0 0 90.61 81.2"><title>Isha Foundation logo</title><path d="M467.34,512.94l.26,0c0-.2,0-.4,0-.6,1.48-.62,5.13-1.25,5.88.3a49.14,49.14,0,0,1-.15,5.35l.05,1.46c0,.25-.06.51-.1.77a12.58,12.58,0,0,1-.13,3.53c0,.08.08.66.09.76a6.94,6.94,0,0,1-.15,1.2c-.07.46.15,1.26.07,1.89-.12,1,.06,2,0,3-.17,2,0,3.27-.12,5.32-.22,2.65.83,6.17-.11,8.28h-.29c0,.23,0,.64-.1.77-.93,1-1.17-.9-1.37-1.47s-.69-.73-.91-1.29a29,29,0,0,1-.83-4.22l-1.35-7.06q-.18-1.89-.36-3.77c-.23-1.13-.14-2.45-.36-3.58,0-.23-.19-1.17-.17-1.26a28.87,28.87,0,0,0-.1-3.52c0-2,.26-4,.23-5.86" transform="translate(-466.7 -471.4)" style="fill-rule:evenodd"/><path d="M492.88,471.4c.94,0,1,.43,1.55.71.26.13.52-.06.7.12a11.41,11.41,0,0,1,2.32,4.1l.4,2.51c-.36.86-.34,1.84-.66,2.92a25.66,25.66,0,0,0-1,7.56A6.82,6.82,0,0,1,496,491c-.16.68.08,1.43,0,2.17q.07,4.32.15,8.65-.13,1.88-.26,3.76,0,1.21,0,2.42c.08,2.5,0,4.61.26,6.73l-.08.63c.1,1.4,0,3.64.11,4.93,0,.68-.08,1.37-.11,2v5.31a21.14,21.14,0,0,0,.22,6.85,26.08,26.08,0,0,0,2.28-4.43l0-.29.22-.12c.35-.52.62-1.22.92-1.76,1.33-2.38,2.37-4.57,4.42-6.1,1.7-1.27,6.57-1.87,8.47-.59.12.08.16.22.26.34.18-.17,1.49.49,1.77.71s.48.62.74.84c3.64,3,7.21,6.13,9.8,10.28.94,1.52,2.15,2.82,3.09,4.39.28.46.87,1,1,1.55l-.15-.08v.17a36.92,36.92,0,0,1,4,7.44,41.6,41.6,0,0,1,1.77,4h0l-.33-.33h-.11l.18.63-.33,0a2.25,2.25,0,0,0,.63.92c-.07.09,0,0-.15.08a1.57,1.57,0,0,1,.11.5l-.11,0c-.63-.06-1.36-1.1-1.84-1.55-.67-.62-1.4-1.1-2.06-1.71-1.09-1-2-2.27-3.1-3.3-2.42-2.33-4.74-4.79-7.15-7.11-2-1.9-3.62-4.28-5.67-6.1s-4.08-4.83-6.78-5.52c-1-.25-2.42,1.4-3.06,2-1.93,1.83-3.29,4.58-4.64,7.06l-1.7,2.42c-.74,1.19-1.8,2.85-3.35,2.59-.26,0-.61,0-.81-.21-1-1.1-1-3-1.4-4.76-.75-3.1-.81-6.82-1.25-10.53q-.16-2.67-.33-5.35c-.16-1.15.17-2.51-.15-3.38-.05-.15.09-.86,0-1.21,0-1.23-.1-2.45-.15-3.68-.29-2.21.09-4.74-.22-6.73-.51-3.26-.38-6.51-.77-9.95a26.79,26.79,0,0,1-.15-4.93q-.11-1.38-.22-2.76a14.28,14.28,0,0,1,.11-3.84l.11-3a60.89,60.89,0,0,1,1.18-7,6.5,6.5,0,0,1,.66-2,8,8,0,0,1,.81-.67" transform="translate(-466.7 -471.4)" style="fill-rule:evenodd"/><path d="M491.09,503.88c1.65.59,3.11,2.33,2.73,3.4-.13.37-1.71.23-1.9.23a6.67,6.67,0,0,0-2.4.84,8.53,8.53,0,0,0-2.59,1.18c-.14.09-.41.11-.56.19a14.92,14.92,0,0,0-2.46,2.07,8.38,8.38,0,0,0-1.19,1.95,14.06,14.06,0,0,0-.62,2c-1.61,4.07,2.21,9.18,4.21,11.82a34.66,34.66,0,0,1,2.2,3.85,13.53,13.53,0,0,1,1.3,3.82,4.91,4.91,0,0,1,.28,1.52c-.13.55.13,1.1,0,1.55-.21.6-.42,1-.6,1.6a8.17,8.17,0,0,1-1.39,2,21.24,21.24,0,0,1-4.68,4.61c-.74.55-1.71.91-2.46,1.49a10.81,10.81,0,0,1-2,1.23l-1.13.32-1.23.74-.9.25a3.26,3.26,0,0,1-1.4.41c-.07,0-.84-.2-.7-.72,0-.76.22-1,.59-1.2a20.36,20.36,0,0,0,3.35-1.56c.26-.19.9-.71,1-.74l.84-.59a13,13,0,0,0,4-5.11c.36-.76,1.32-2,1.19-2.95a6.13,6.13,0,0,0-.45-2.29,32.6,32.6,0,0,0-2.58-4.39c-1.64-2.42-2.95-5-4.46-7.69a15.63,15.63,0,0,1-1.85-4.22c-.69-2.16.31-4.83,1-6.63a15.17,15.17,0,0,1,4.94-6.93,18.42,18.42,0,0,1,2.19-1.11,9.54,9.54,0,0,1,3.07-1.3,11.81,11.81,0,0,1,3.48,0l1.16.27" transform="translate(-466.7 -471.4)" style="fill-rule:evenodd"/><path d="M552.66,526.75a8.33,8.33,0,0,1,.1,2.28l-.68.64a30.84,30.84,0,0,1-2.36,2c-.82.58-1.69,1.21-2.56,1.77a29.61,29.61,0,0,1-2.81,1.26c-1.05.53-2.23,1.09-3.36,1.53a18.47,18.47,0,0,1-3.41,1,10.69,10.69,0,0,0-1.61.29c-1.41.49-5.68,1.5-6.4,0a2.19,2.19,0,0,1,.28-.83,14.69,14.69,0,0,1,1.76-3.14c2-3.17,5.5-4.86,9-6.46a26.12,26.12,0,0,1,3.34-.91,20.54,20.54,0,0,1,2.36-.35c.14,0,.25.15.4.13l.6-.19c.55-.06,1.09.23,1.71,0a7.76,7.76,0,0,1,3.64,1m1.73-7.19a4.64,4.64,0,0,1,2.08.64,48.29,48.29,0,0,1,.55,4.91,27.82,27.82,0,0,1,.2,5.42l0,3.54c0,.28,0,.57,0,.86q0,2.16-.08,4.32a24.67,24.67,0,0,1-.3,4.5,4.07,4.07,0,0,0,0,1.66c-.05.12,0,.12-.15.11s-.07,0-.15-.05c-.12-.57-.39-.37-.6-.7a9.21,9.21,0,0,1-1.13-2.12l-.45-1.93-.13-1c-.62-2.11-.75-4.43-1.2-6.89h0l-.5.7c-.57.52-1.2.94-1.76,1.47l-.53.75c-.84.7-1.8,1.25-2.66,1.9l-.48.19a13.33,13.33,0,0,1-1.2.75l-.2,0-.17.19a4,4,0,0,0-1.66.8c-.36-.23-1.16.44-1.48.59l-3.64,1c-4.3.86-9.16,1.34-12.37-1.34a7,7,0,0,1-1.31-1.15l-.25-1c-1.14-3,1.39-5.93,2.78-7.7a22,22,0,0,1,8.41-6.43l2.91-1a9.1,9.1,0,0,0,1.58-.43,5.27,5.27,0,0,0,1.86-.27c1.21-.22,2.12-.06,3.11-.29l1.08,0c1.46.19,2.7,0,4,.27.35.08,1.7.56,1.81.54v0a4.69,4.69,0,0,1,.4-2.6c.18,0,1.62-.17,1.63-.19" transform="translate(-466.7 -471.4)" style="fill-rule:evenodd"/><path d="M467.68,504.9s-1.13,2.51-1,3.28c.12.6,1.41,1,1.41,1a12.35,12.35,0,0,0,5-.18,2.08,2.08,0,0,0,.71-.54,1.64,1.64,0,0,0,.32-1,6.94,6.94,0,0,0-2-4.33s-1.32-.85-1.67-.79a5.19,5.19,0,0,0-2.74,2.56" transform="translate(-466.7 -471.4)" style="fill:#ea5329;fill-rule:evenodd"/></svg>